<svg width="225" height="72" viewBox="0 0 225 72"><path d="M134.11,11c4.18,0,7.21,0.95,9.08,2.86c1.87,1.91,2.81,4.79,2.81,8.64v1.79c0,2.57-0.41,4.69-1.24,6.36 c-0.83,1.67-2.14,2.91-3.94,3.71c2.19,0.81,3.73,2.13,4.63,3.96c0.9,1.83,1.35,4.08,1.35,6.75v4.07c0,3.86-1.02,6.8-3.06,8.82 c-2.04,2.02-5.08,3.04-9.12,3.04H122V11H134.11z M130.01,18.14v13.21h3.13c1.5,0,2.68-0.38,3.53-1.14c0.85-0.76,1.27-2.14,1.27-4.14 v-2.79c0-1.81-0.33-3.12-0.98-3.93c-0.66-0.81-1.69-1.21-3.09-1.21H130.01z M130.01,38.5v15.36h4.59c1.36,0,2.39-0.36,3.09-1.07 c0.7-0.71,1.06-2,1.06-3.86v-4.36c0-2.33-0.4-3.93-1.2-4.79c-0.8-0.86-2.12-1.29-3.97-1.29H130.01z M158.86,32.07H170v7.14h-11.14 v14.64H173V61h-22V11h22v7.14h-14.14V32.07z M204,11h7.86v42.86H225V61h-21V11z M178,11h7.86v42.86H199V61h-21V11z"></path></svg>