<svg class="instagram" xmlns="http://www.w3.org/2000/svg" viewBox=""><path d="M23.83 20a3.83 3.83 0 11-7.66 0 3.83 3.83 0 017.66 0zm5.12-6.77c-.18-.5-.48-.95-.86-1.32-.37-.38-.82-.68-1.32-.86-.4-.16-1.01-.34-2.13-.4-1.21-.06-1.57-.07-4.64-.07-3.07 0-3.43.01-4.64.07-1.12.05-1.73.24-2.13.4-.5.18-.95.48-1.32.86-.38.37-.68.82-.86 1.32-.16.4-.34 1.01-.4 2.13-.06 1.21-.07 1.57-.07 4.64 0 3.07.01 3.43.07 4.64.05 1.12.24 1.73.4 2.13.18.5.48.95.86 1.32.37.38.82.68 1.32.86.4.16 1.01.34 2.13.4 1.21.06 1.57.07 4.64.07 3.07 0 3.43-.01 4.64-.07 1.12-.05 1.73-.24 2.13-.4 1-.39 1.79-1.18 2.18-2.18.16-.4.34-1.01.4-2.13.06-1.21.07-1.57.07-4.64 0-3.07-.01-3.43-.07-4.64-.05-1.12-.24-1.73-.4-2.13zM20 25.9c-3.26 0-5.9-2.64-5.9-5.9s2.64-5.9 5.9-5.9c3.26 0 5.9 2.64 5.9 5.9s-2.64 5.9-5.9 5.9zm6.13-10.65c-.76 0-1.38-.62-1.38-1.38s.62-1.38 1.38-1.38 1.38.62 1.38 1.38c0 .76-.62 1.38-1.38 1.38zM20 0C8.96 0 0 8.96 0 20s8.96 20 20 20 20-8.96 20-20S31.04 0 20 0zm11.42 24.73c-.06 1.22-.25 2.06-.53 2.79a5.91 5.91 0 01-3.36 3.36c-.73.28-1.57.48-2.79.53-1.22.06-1.62.07-4.73.07-3.12 0-3.51-.01-4.74-.07-1.22-.06-2.06-.25-2.79-.53-.77-.29-1.46-.74-2.03-1.32a5.57 5.57 0 01-1.32-2.03c-.28-.73-.48-1.57-.53-2.79-.07-1.23-.08-1.62-.08-4.74s.01-3.51.07-4.73c.06-1.22.25-2.06.53-2.79.29-.77.74-1.46 1.33-2.03a5.57 5.57 0 012.03-1.32c.73-.28 1.57-.48 2.79-.53 1.22-.06 1.62-.07 4.73-.07s3.51.01 4.73.07c1.22.06 2.06.25 2.79.53.77.29 1.46.74 2.03 1.33a5.57 5.57 0 011.32 2.03c.28.73.48 1.57.53 2.79.06 1.22.07 1.62.07 4.73s0 3.5-.05 4.72z"></path></svg>