<svg width="225" height="72" viewBox="0 0 225 72"><path d="M8.97,53.73c0.43,0.05,0.88,0.07,1.35,0.07c0.47,0,0.93,0,1.35,0c1.23,0,2.29-0.31,3.17-0.93c0.88-0.62,1.32-1.9,1.32-3.85 V11H24v37.46c0,2.52-0.31,4.58-0.93,6.2c-0.62,1.61-1.45,2.88-2.49,3.81c-1.05,0.93-2.24,1.58-3.6,1.96 C15.63,60.81,14.22,61,12.75,61c-0.71,0-1.35,0-1.92,0c-0.57,0-1.19-0.05-1.85-0.14V53.73z M29,23.29c0-3.96,0.99-6.99,2.96-9.11 C33.93,12.06,36.78,11,40.5,11c3.72,0,6.56,1.06,8.54,3.18C51.01,16.3,52,19.33,52,23.29v25.42c0,3.96-0.99,7-2.96,9.11 C47.06,59.94,44.22,61,40.5,61c-3.72,0-6.57-1.06-8.54-3.18C29.99,55.7,29,52.67,29,48.71V23.29z M36.57,49.2 c0,1.77,0.36,3.01,1.07,3.74c0.71,0.72,1.66,1.08,2.86,1.08c1.19,0,2.15-0.36,2.86-1.08c0.71-0.72,1.07-1.97,1.07-3.74V22.8 c0-1.77-0.36-3.01-1.07-3.74c-0.71-0.72-1.66-1.08-2.86-1.08c-1.19,0-2.15,0.36-2.86,1.08c-0.71,0.72-1.07,1.97-1.07,3.74V49.2z M57,11h7.86v42.86H78V61H57V11z M83.07,44.43L73.14,11h8.21l6,22.79l6-22.79h7.5l-9.93,33.43V61h-7.86V44.43z"></path></svg>