<svg class="logo-jolydot" width="113" height="72" viewBox="0 0 113 72"><path d="M0 0v72h113V0H0zm24 48.46c0 2.52-.31 4.58-.93 6.2-.62 1.61-1.45 2.88-2.49 3.81a8.99 8.99 0 01-3.6 1.96c-1.35.38-2.76.57-4.23.57h-1.92c-.57 0-1.19-.05-1.85-.14v-7.12c.43.05.88.07 1.35.07h1.35c1.23 0 2.29-.31 3.17-.93s1.32-1.9 1.32-3.85V11H24v37.46zm28 .25c0 3.96-.99 7-2.96 9.11C47.06 59.94 44.22 61 40.5 61c-3.72 0-6.57-1.06-8.54-3.18C29.99 55.7 29 52.67 29 48.71V23.29c0-3.96.99-6.99 2.96-9.11C33.93 12.06 36.78 11 40.5 11c3.72 0 6.56 1.06 8.54 3.18C51.01 16.3 52 19.33 52 23.29v25.42zM78 61H57V11h7.86v42.86H78V61zm12.93 0h-7.86V44.43L73.14 11h8.21l6 22.79 6-22.79h7.5l-9.92 33.43V61zm12.64 0H96v-7.57h7.57V61zM43.36 19.06c.71.73 1.07 1.97 1.07 3.74v26.4c0 1.77-.36 3.02-1.07 3.74-.71.72-1.67 1.08-2.86 1.08-1.2 0-2.15-.36-2.86-1.08-.71-.73-1.07-1.97-1.07-3.74V22.8c0-1.77.36-3.02 1.07-3.74.71-.72 1.67-1.08 2.86-1.08s2.15.36 2.86 1.08z"></path></svg>